<svg width="49" height="48" viewBox="0 0 49 48" fill="none" xmlns="http://www.w3.org/2000/svg">
<path d="M3.69237 41V43H1.69238V41H3.69237Z" stroke="#000405" style="stroke:#000405;stroke:color(display-p3 0.0000 0.0157 0.0196);stroke-opacity:1;" stroke-width="2"/>
<path d="M3.69237 45V47H1.69238V45H3.69237Z" stroke="#000405" style="stroke:#000405;stroke:color(display-p3 0.0000 0.0157 0.0196);stroke-opacity:1;" stroke-width="2"/>
<path d="M39.6924 45V47H37.6924V45H39.6924Z" stroke="#000507" style="stroke:#000507;stroke:color(display-p3 0.0000 0.0196 0.0275);stroke-opacity:1;" stroke-width="2"/>
<path d="M19.6924 33V35H17.6924V33H19.6924Z" stroke="#000709" style="stroke:#000709;stroke:color(display-p3 0.0000 0.0275 0.0353);stroke-opacity:1;" stroke-width="2"/>
<path d="M43.6924 33V35H41.6924V33H43.6924Z" stroke="#000709" style="stroke:#000709;stroke:color(display-p3 0.0000 0.0275 0.0353);stroke-opacity:1;" stroke-width="2"/>
<path d="M11.6924 21V23H9.69238V21H11.6924Z" stroke="#00080B" style="stroke:#00080B;stroke:color(display-p3 0.0000 0.0314 0.0431);stroke-opacity:1;" stroke-width="2"/>
<path d="M11.6924 45V47H9.69238V45H11.6924Z" stroke="#00080B" style="stroke:#00080B;stroke:color(display-p3 0.0000 0.0314 0.0431);stroke-opacity:1;" stroke-width="2"/>
<path d="M7.69241 45V47H5.69238V45H7.69241Z" stroke="#00090B" style="stroke:#00090B;stroke:color(display-p3 0.0000 0.0353 0.0431);stroke-opacity:1;" stroke-width="2"/>
<path d="M47.6924 45V47H45.6924V45H47.6924Z" stroke="#00090B" style="stroke:#00090B;stroke:color(display-p3 0.0000 0.0353 0.0431);stroke-opacity:1;" stroke-width="2"/>
<path d="M3.69237 17V19H1.69238V17H3.69237Z" stroke="#00090C" style="stroke:#00090C;stroke:color(display-p3 0.0000 0.0353 0.0471);stroke-opacity:1;" stroke-width="2"/>
<path d="M39.6924 37V39H37.6924V37H39.6924Z" stroke="#00090C" style="stroke:#00090C;stroke:color(display-p3 0.0000 0.0353 0.0471);stroke-opacity:1;" stroke-width="2"/>
<path d="M19.6924 45V47H17.6924V45H19.6924Z" stroke="#000A0D" style="stroke:#000A0D;stroke:color(display-p3 0.0000 0.0392 0.0510);stroke-opacity:1;" stroke-width="2"/>
<path d="M15.6924 33V35H13.6924V33H15.6924Z" stroke="#000A0D" style="stroke:#000A0D;stroke:color(display-p3 0.0000 0.0392 0.0510);stroke-opacity:1;" stroke-width="2"/>
<path d="M19.6924 29V31H17.6924V29H19.6924Z" stroke="#000A0D" style="stroke:#000A0D;stroke:color(display-p3 0.0000 0.0392 0.0510);stroke-opacity:1;" stroke-width="2"/>
<path d="M23.6924 13V15H21.6924V13H23.6924Z" stroke="#000B0E" style="stroke:#000B0E;stroke:color(display-p3 0.0000 0.0431 0.0549);stroke-opacity:1;" stroke-width="2"/>
<path d="M19.6924 37V39H17.6924V37H19.6924Z" stroke="#000B0E" style="stroke:#000B0E;stroke:color(display-p3 0.0000 0.0431 0.0549);stroke-opacity:1;" stroke-width="2"/>
<path d="M19.6924 21V23H17.6924V21H19.6924Z" stroke="#000C10" style="stroke:#000C10;stroke:color(display-p3 0.0000 0.0471 0.0627);stroke-opacity:1;" stroke-width="2"/>
<path d="M19.6924 25V27H17.6924V25H19.6924Z" stroke="#000C10" style="stroke:#000C10;stroke:color(display-p3 0.0000 0.0471 0.0627);stroke-opacity:1;" stroke-width="2"/>
<path d="M31.6924 41V43H29.6924V41H31.6924Z" stroke="#000D11" style="stroke:#000D11;stroke:color(display-p3 0.0000 0.0510 0.0667);stroke-opacity:1;" stroke-width="2"/>
<path d="M35.6924 29V31H33.6924V29H35.6924Z" stroke="#000E12" style="stroke:#000E12;stroke:color(display-p3 0.0000 0.0549 0.0706);stroke-opacity:1;" stroke-width="2"/>
<path d="M7.69241 41V43H5.69238V41H7.69241Z" stroke="#000E12" style="stroke:#000E12;stroke:color(display-p3 0.0000 0.0549 0.0706);stroke-opacity:1;" stroke-width="2"/>
<path d="M35.6924 41V43H33.6924V41H35.6924Z" stroke="#000E12" style="stroke:#000E12;stroke:color(display-p3 0.0000 0.0549 0.0706);stroke-opacity:1;" stroke-width="2"/>
<path d="M11.6924 41V43H9.69238V41H11.6924Z" stroke="#001015" style="stroke:#001015;stroke:color(display-p3 0.0000 0.0627 0.0824);stroke-opacity:1;" stroke-width="2"/>
<path d="M35.6924 37V39H33.6924V37H35.6924Z" stroke="#001015" style="stroke:#001015;stroke:color(display-p3 0.0000 0.0627 0.0824);stroke-opacity:1;" stroke-width="2"/>
<path d="M15.6924 41V43H13.6924V41H15.6924Z" stroke="#001116" style="stroke:#001116;stroke:color(display-p3 0.0000 0.0667 0.0863);stroke-opacity:1;" stroke-width="2"/>
<path d="M43.6924 13V15H41.6924V13H43.6924Z" stroke="#001217" style="stroke:#001217;stroke:color(display-p3 0.0000 0.0706 0.0902);stroke-opacity:1;" stroke-width="2"/>
<path d="M43.6924 29V31H41.6924V29H43.6924Z" stroke="#001318" style="stroke:#001318;stroke:color(display-p3 0.0000 0.0745 0.0941);stroke-opacity:1;" stroke-width="2"/>
<path d="M23.6924 41V43H21.6924V41H23.6924Z" stroke="#00151C" style="stroke:#00151C;stroke:color(display-p3 0.0000 0.0824 0.1098);stroke-opacity:1;" stroke-width="2"/>
<path d="M3.69237 29V31H1.69238V29H3.69237Z" stroke="#00171E" style="stroke:#00171E;stroke:color(display-p3 0.0000 0.0902 0.1176);stroke-opacity:1;" stroke-width="2"/>
<path d="M23.6924 45V47H21.6924V45H23.6924Z" stroke="#001A22" style="stroke:#001A22;stroke:color(display-p3 0.0000 0.1020 0.1333);stroke-opacity:1;" stroke-width="2"/>
<path d="M15.6924 13V15H13.6924V13H15.6924Z" stroke="#001B22" style="stroke:#001B22;stroke:color(display-p3 0.0000 0.1059 0.1333);stroke-opacity:1;" stroke-width="2"/>
<path d="M15.6924 17V19H13.6924V17H15.6924Z" stroke="#001C24" style="stroke:#001C24;stroke:color(display-p3 0.0000 0.1098 0.1412);stroke-opacity:1;" stroke-width="2"/>
<path d="M23.6924 33V35H21.6924V33H23.6924Z" stroke="#001C24" style="stroke:#001C24;stroke:color(display-p3 0.0000 0.1098 0.1412);stroke-opacity:1;" stroke-width="2"/>
<path d="M3.69237 37V39H1.69238V37H3.69237Z" stroke="#001C24" style="stroke:#001C24;stroke:color(display-p3 0.0000 0.1098 0.1412);stroke-opacity:1;" stroke-width="2"/>
<path d="M35.6924 25V27H33.6924V25H35.6924Z" stroke="#001C24" style="stroke:#001C24;stroke:color(display-p3 0.0000 0.1098 0.1412);stroke-opacity:1;" stroke-width="2"/>
<path d="M7.69241 37V39H5.69238V37H7.69241Z" stroke="#001E27" style="stroke:#001E27;stroke:color(display-p3 0.0000 0.1176 0.1529);stroke-opacity:1;" stroke-width="2"/>
<path d="M27.6924 33V35H25.6924V33H27.6924Z" stroke="#001E27" style="stroke:#001E27;stroke:color(display-p3 0.0000 0.1176 0.1529);stroke-opacity:1;" stroke-width="2"/>
<path d="M11.6924 37V39H9.69238V37H11.6924Z" stroke="#001F28" style="stroke:#001F28;stroke:color(display-p3 0.0000 0.1216 0.1569);stroke-opacity:1;" stroke-width="2"/>
<path d="M39.6924 21V23H37.6924V21H39.6924Z" stroke="#001F28" style="stroke:#001F28;stroke:color(display-p3 0.0000 0.1216 0.1569);stroke-opacity:1;" stroke-width="2"/>
<path d="M35.6924 45V47H33.6924V45H35.6924Z" stroke="#001F28" style="stroke:#001F28;stroke:color(display-p3 0.0000 0.1216 0.1569);stroke-opacity:1;" stroke-width="2"/>
<path d="M11.6924 25V27H9.69238V25H11.6924Z" stroke="#002029" style="stroke:#002029;stroke:color(display-p3 0.0000 0.1255 0.1608);stroke-opacity:1;" stroke-width="2"/>
<path d="M3.69237 33V35H1.69238V33H3.69237Z" stroke="#00202A" style="stroke:#00202A;stroke:color(display-p3 0.0000 0.1255 0.1647);stroke-opacity:1;" stroke-width="2"/>
<path d="M7.69241 29V31H5.69238V29H7.69241Z" stroke="#00212B" style="stroke:#00212B;stroke:color(display-p3 0.0000 0.1294 0.1686);stroke-opacity:1;" stroke-width="2"/>
<path d="M31.6924 5V7.00002H29.6924V5H31.6924Z" stroke="#00222C" style="stroke:#00222C;stroke:color(display-p3 0.0000 0.1333 0.1725);stroke-opacity:1;" stroke-width="2"/>
<path d="M7.69241 17V19H5.69238V17H7.69241Z" stroke="#00242E" style="stroke:#00242E;stroke:color(display-p3 0.0000 0.1412 0.1804);stroke-opacity:1;" stroke-width="2"/>
<path d="M47.6924 17V19H45.6924V17H47.6924Z" stroke="#002530" style="stroke:#002530;stroke:color(display-p3 0.0000 0.1451 0.1882);stroke-opacity:1;" stroke-width="2"/>
<path d="M7.69241 33V35H5.69238V33H7.69241Z" stroke="#002631" style="stroke:#002631;stroke:color(display-p3 0.0000 0.1490 0.1922);stroke-opacity:1;" stroke-width="2"/>
<path d="M15.6924 9V11H13.6924V9H15.6924Z" stroke="#002732" style="stroke:#002732;stroke:color(display-p3 0.0000 0.1529 0.1961);stroke-opacity:1;" stroke-width="2"/>
<path d="M11.6924 33V35H9.69238V33H11.6924Z" stroke="#002834" style="stroke:#002834;stroke:color(display-p3 0.0000 0.1569 0.2039);stroke-opacity:1;" stroke-width="2"/>
<path d="M31.6924 17V19H29.6924V17H31.6924Z" stroke="#002A36" style="stroke:#002A36;stroke:color(display-p3 0.0000 0.1647 0.2118);stroke-opacity:1;" stroke-width="2"/>
<path d="M35.6924 5V7.00002H33.6924V5H35.6924Z" stroke="#002B38" style="stroke:#002B38;stroke:color(display-p3 0.0000 0.1686 0.2196);stroke-opacity:1;" stroke-width="2"/>
<path d="M15.6924 45V47H13.6924V45H15.6924Z" stroke="#002D3A" style="stroke:#002D3A;stroke:color(display-p3 0.0000 0.1765 0.2275);stroke-opacity:1;" stroke-width="2"/>
<path d="M15.6924 5V7.00002H13.6924V5H15.6924Z" stroke="#002D3A" style="stroke:#002D3A;stroke:color(display-p3 0.0000 0.1765 0.2275);stroke-opacity:1;" stroke-width="2"/>
<path d="M19.6924 41V43H17.6924V41H19.6924Z" stroke="#002E3C" style="stroke:#002E3C;stroke:color(display-p3 0.0000 0.1804 0.2353);stroke-opacity:1;" stroke-width="2"/>
<path d="M11.6924 29V31H9.69238V29H11.6924Z" stroke="#002E3C" style="stroke:#002E3C;stroke:color(display-p3 0.0000 0.1804 0.2353);stroke-opacity:1;" stroke-width="2"/>
<path d="M31.6924 45V47H29.6924V45H31.6924Z" stroke="#003240" style="stroke:#003240;stroke:color(display-p3 0.0000 0.1961 0.2510);stroke-opacity:1;" stroke-width="2"/>
<path d="M39.6924 41V43H37.6924V41H39.6924Z" stroke="#003240" style="stroke:#003240;stroke:color(display-p3 0.0000 0.1961 0.2510);stroke-opacity:1;" stroke-width="2"/>
<path d="M15.6924 25V27H13.6924V25H15.6924Z" stroke="#003241" style="stroke:#003241;stroke:color(display-p3 0.0000 0.1961 0.2549);stroke-opacity:1;" stroke-width="2"/>
<path d="M15.6924 29V31H13.6924V29H15.6924Z" stroke="#003241" style="stroke:#003241;stroke:color(display-p3 0.0000 0.1961 0.2549);stroke-opacity:1;" stroke-width="2"/>
<path d="M3.69237 25V27H1.69238V25H3.69237Z" stroke="#003342" style="stroke:#003342;stroke:color(display-p3 0.0000 0.2000 0.2588);stroke-opacity:1;" stroke-width="2"/>
<path d="M31.6924 21V23H29.6924V21H31.6924Z" stroke="#003443" style="stroke:#003443;stroke:color(display-p3 0.0000 0.2039 0.2627);stroke-opacity:1;" stroke-width="2"/>
<path d="M3.69237 21V23H1.69238V21H3.69237Z" stroke="#003443" style="stroke:#003443;stroke:color(display-p3 0.0000 0.2039 0.2627);stroke-opacity:1;" stroke-width="2"/>
<path d="M27.6924 13V15H25.6924V13H27.6924Z" stroke="#003544" style="stroke:#003544;stroke:color(display-p3 0.0000 0.2078 0.2667);stroke-opacity:1;" stroke-width="2"/>
<path d="M35.6924 1V2.99998H33.6924V1H35.6924Z" stroke="#003545" style="stroke:#003545;stroke:color(display-p3 0.0000 0.2078 0.2706);stroke-opacity:1;" stroke-width="2"/>
<path d="M11.6924 9V11H9.69238V9H11.6924Z" stroke="#003545" style="stroke:#003545;stroke:color(display-p3 0.0000 0.2078 0.2706);stroke-opacity:1;" stroke-width="2"/>
<path d="M15.6924 37V39H13.6924V37H15.6924Z" stroke="#003545" style="stroke:#003545;stroke:color(display-p3 0.0000 0.2078 0.2706);stroke-opacity:1;" stroke-width="2"/>
<path d="M43.6924 41V43H41.6924V41H43.6924Z" stroke="#003646" style="stroke:#003646;stroke:color(display-p3 0.0000 0.2118 0.2745);stroke-opacity:1;" stroke-width="2"/>
<path d="M11.6924 13V15H9.69238V13H11.6924Z" stroke="#003747" style="stroke:#003747;stroke:color(display-p3 0.0000 0.2157 0.2784);stroke-opacity:1;" stroke-width="2"/>
<path d="M43.6924 37V39H41.6924V37H43.6924Z" stroke="#003849" style="stroke:#003849;stroke:color(display-p3 0.0000 0.2196 0.2863);stroke-opacity:1;" stroke-width="2"/>
<path d="M47.6924 29V31H45.6924V29H47.6924Z" stroke="#003949" style="stroke:#003949;stroke:color(display-p3 0.0000 0.2235 0.2863);stroke-opacity:1;" stroke-width="2"/>
<path d="M31.6924 29V31H29.6924V29H31.6924Z" stroke="#003949" style="stroke:#003949;stroke:color(display-p3 0.0000 0.2235 0.2863);stroke-opacity:1;" stroke-width="2"/>
<path d="M27.6924 5V7.00002H25.6924V5H27.6924Z" stroke="#003A4B" style="stroke:#003A4B;stroke:color(display-p3 0.0000 0.2275 0.2941);stroke-opacity:1;" stroke-width="2"/>
<path d="M35.6924 9V11H33.6924V9H35.6924Z" stroke="#003A4B" style="stroke:#003A4B;stroke:color(display-p3 0.0000 0.2275 0.2941);stroke-opacity:1;" stroke-width="2"/>
<path d="M19.6924 17V19H17.6924V17H19.6924Z" stroke="#003A4B" style="stroke:#003A4B;stroke:color(display-p3 0.0000 0.2275 0.2941);stroke-opacity:1;" stroke-width="2"/>
<path d="M23.6924 37V39H21.6924V37H23.6924Z" stroke="#003B4D" style="stroke:#003B4D;stroke:color(display-p3 0.0000 0.2314 0.3020);stroke-opacity:1;" stroke-width="2"/>
<path d="M7.69241 21V23H5.69238V21H7.69241Z" stroke="#003D4F" style="stroke:#003D4F;stroke:color(display-p3 0.0000 0.2392 0.3098);stroke-opacity:1;" stroke-width="2"/>
<path d="M31.6924 33V35H29.6924V33H31.6924Z" stroke="#003D4F" style="stroke:#003D4F;stroke:color(display-p3 0.0000 0.2392 0.3098);stroke-opacity:1;" stroke-width="2"/>
<path d="M23.6924 5V7.00002H21.6924V5H23.6924Z" stroke="#003E50" style="stroke:#003E50;stroke:color(display-p3 0.0000 0.2431 0.3137);stroke-opacity:1;" stroke-width="2"/>
<path d="M39.6924 29V31H37.6924V29H39.6924Z" stroke="#004559" style="stroke:#004559;stroke:color(display-p3 0.0000 0.2706 0.3490);stroke-opacity:1;" stroke-width="2"/>
<path d="M27.6924 29V31H25.6924V29H27.6924Z" stroke="#004559" style="stroke:#004559;stroke:color(display-p3 0.0000 0.2706 0.3490);stroke-opacity:1;" stroke-width="2"/>
<path d="M7.69241 25V27H5.69238V25H7.69241Z" stroke="#00455A" style="stroke:#00455A;stroke:color(display-p3 0.0000 0.2706 0.3529);stroke-opacity:1;" stroke-width="2"/>
<path d="M27.6924 41V43H25.6924V41H27.6924Z" stroke="#00455A" style="stroke:#00455A;stroke:color(display-p3 0.0000 0.2706 0.3529);stroke-opacity:1;" stroke-width="2"/>
<path d="M39.6924 17V19H37.6924V17H39.6924Z" stroke="#00485D" style="stroke:#00485D;stroke:color(display-p3 0.0000 0.2824 0.3647);stroke-opacity:1;" stroke-width="2"/>
<path d="M3.69237 1V2.99998H1.69238V1H3.69237Z" stroke="#00495E" style="stroke:#00495E;stroke:color(display-p3 0.0000 0.2863 0.3686);stroke-opacity:1;" stroke-width="2"/>
<path d="M27.6924 45V47H25.6924V45H27.6924Z" stroke="#004A60" style="stroke:#004A60;stroke:color(display-p3 0.0000 0.2902 0.3765);stroke-opacity:1;" stroke-width="2"/>
<path d="M31.6924 1V2.99998H29.6924V1H31.6924Z" stroke="#004D64" style="stroke:#004D64;stroke:color(display-p3 0.0000 0.3020 0.3922);stroke-opacity:1;" stroke-width="2"/>
<path d="M47.6924 5V7.00002H45.6924V5H47.6924Z" stroke="#00536C" style="stroke:#00536C;stroke:color(display-p3 0.0000 0.3255 0.4235);stroke-opacity:1;" stroke-width="2"/>
<path d="M39.6924 33V35H37.6924V33H39.6924Z" stroke="#00546C" style="stroke:#00546C;stroke:color(display-p3 0.0000 0.3294 0.4235);stroke-opacity:1;" stroke-width="2"/>
<path d="M11.6924 5V7.00002H9.69238V5H11.6924Z" stroke="#00556E" style="stroke:#00556E;stroke:color(display-p3 0.0000 0.3333 0.4314);stroke-opacity:1;" stroke-width="2"/>
<path d="M15.6924 21V23H13.6924V21H15.6924Z" stroke="#00556F" style="stroke:#00556F;stroke:color(display-p3 0.0000 0.3333 0.4353);stroke-opacity:1;" stroke-width="2"/>
<path d="M43.6924 1V2.99998H41.6924V1H43.6924Z" stroke="#005670" style="stroke:#005670;stroke:color(display-p3 0.0000 0.3373 0.4392);stroke-opacity:1;" stroke-width="2"/>
<path d="M43.6924 17V19H41.6924V17H43.6924Z" stroke="#005670" style="stroke:#005670;stroke:color(display-p3 0.0000 0.3373 0.4392);stroke-opacity:1;" stroke-width="2"/>
<path d="M27.6924 9V11H25.6924V9H27.6924Z" stroke="#005770" style="stroke:#005770;stroke:color(display-p3 0.0000 0.3412 0.4392);stroke-opacity:1;" stroke-width="2"/>
<path d="M39.6924 25V27H37.6924V25H39.6924Z" stroke="#005771" style="stroke:#005771;stroke:color(display-p3 0.0000 0.3412 0.4431);stroke-opacity:1;" stroke-width="2"/>
<path d="M23.6924 25V27H21.6924V25H23.6924Z" stroke="#005872" style="stroke:#005872;stroke:color(display-p3 0.0000 0.3451 0.4471);stroke-opacity:1;" stroke-width="2"/>
<path d="M47.6924 33V35H45.6924V33H47.6924Z" stroke="#005873" style="stroke:#005873;stroke:color(display-p3 0.0000 0.3451 0.4510);stroke-opacity:1;" stroke-width="2"/>
<path d="M19.6924 13V15H17.6924V13H19.6924Z" stroke="#005973" style="stroke:#005973;stroke:color(display-p3 0.0000 0.3490 0.4510);stroke-opacity:1;" stroke-width="2"/>
<path d="M31.6924 9V11H29.6924V9H31.6924Z" stroke="#005973" style="stroke:#005973;stroke:color(display-p3 0.0000 0.3490 0.4510);stroke-opacity:1;" stroke-width="2"/>
<path d="M23.6924 29V31H21.6924V29H23.6924Z" stroke="#005A75" style="stroke:#005A75;stroke:color(display-p3 0.0000 0.3529 0.4588);stroke-opacity:1;" stroke-width="2"/>
<path d="M27.6924 37V39H25.6924V37H27.6924Z" stroke="#005B76" style="stroke:#005B76;stroke:color(display-p3 0.0000 0.3569 0.4627);stroke-opacity:1;" stroke-width="2"/>
<path d="M7.69241 13V15H5.69238V13H7.69241Z" stroke="#005B77" style="stroke:#005B77;stroke:color(display-p3 0.0000 0.3569 0.4667);stroke-opacity:1;" stroke-width="2"/>
<path d="M47.6924 13V15H45.6924V13H47.6924Z" stroke="#005F7B" style="stroke:#005F7B;stroke:color(display-p3 0.0000 0.3725 0.4824);stroke-opacity:1;" stroke-width="2"/>
<path d="M23.6924 21V23H21.6924V21H23.6924Z" stroke="#006684" style="stroke:#006684;stroke:color(display-p3 0.0000 0.4000 0.5176);stroke-opacity:1;" stroke-width="2"/>
<path d="M11.6924 17V19H9.69238V17H11.6924Z" stroke="#006685" style="stroke:#006685;stroke:color(display-p3 0.0000 0.4000 0.5216);stroke-opacity:1;" stroke-width="2"/>
<path d="M27.6924 21V23H25.6924V21H27.6924Z" stroke="#006785" style="stroke:#006785;stroke:color(display-p3 0.0000 0.4039 0.5216);stroke-opacity:1;" stroke-width="2"/>
<path d="M7.69241 1V2.99998H5.69238V1H7.69241Z" stroke="#006785" style="stroke:#006785;stroke:color(display-p3 0.0000 0.4039 0.5216);stroke-opacity:1;" stroke-width="2"/>
<path d="M19.6924 9V11H17.6924V9H19.6924Z" stroke="#006786" style="stroke:#006786;stroke:color(display-p3 0.0000 0.4039 0.5255);stroke-opacity:1;" stroke-width="2"/>
<path d="M43.6924 9V11H41.6924V9H43.6924Z" stroke="#006887" style="stroke:#006887;stroke:color(display-p3 0.0000 0.4078 0.5294);stroke-opacity:1;" stroke-width="2"/>
<path d="M43.6924 25V27H41.6924V25H43.6924Z" stroke="#006988" style="stroke:#006988;stroke:color(display-p3 0.0000 0.4118 0.5333);stroke-opacity:1;" stroke-width="2"/>
<path d="M39.6924 1V2.99998H37.6924V1H39.6924Z" stroke="#006B8B" style="stroke:#006B8B;stroke:color(display-p3 0.0000 0.4196 0.5451);stroke-opacity:1;" stroke-width="2"/>
<path d="M43.6924 21V23H41.6924V21H43.6924Z" stroke="#006C8C" style="stroke:#006C8C;stroke:color(display-p3 0.0000 0.4235 0.5490);stroke-opacity:1;" stroke-width="2"/>
<path d="M7.69241 9V11H5.69238V9H7.69241Z" stroke="#006E8F" style="stroke:#006E8F;stroke:color(display-p3 0.0000 0.4314 0.5608);stroke-opacity:1;" stroke-width="2"/>
<path d="M35.6924 17V19H33.6924V17H35.6924Z" stroke="#006E8F" style="stroke:#006E8F;stroke:color(display-p3 0.0000 0.4314 0.5608);stroke-opacity:1;" stroke-width="2"/>
<path d="M31.6924 37V39H29.6924V37H31.6924Z" stroke="#006E8F" style="stroke:#006E8F;stroke:color(display-p3 0.0000 0.4314 0.5608);stroke-opacity:1;" stroke-width="2"/>
<path d="M7.69241 5V7.00002H5.69238V5H7.69241Z" stroke="#007192" style="stroke:#007192;stroke:color(display-p3 0.0000 0.4431 0.5725);stroke-opacity:1;" stroke-width="2"/>
<path d="M27.6924 17V19H25.6924V17H27.6924Z" stroke="#007192" style="stroke:#007192;stroke:color(display-p3 0.0000 0.4431 0.5725);stroke-opacity:1;" stroke-width="2"/>
<path d="M27.6924 25V27H25.6924V25H27.6924Z" stroke="#007193" style="stroke:#007193;stroke:color(display-p3 0.0000 0.4431 0.5765);stroke-opacity:1;" stroke-width="2"/>
<path d="M3.69237 13V15H1.69238V13H3.69237Z" stroke="#007193" style="stroke:#007193;stroke:color(display-p3 0.0000 0.4431 0.5765);stroke-opacity:1;" stroke-width="2"/>
<path d="M3.69237 9V11H1.69238V9H3.69237Z" stroke="#007598" style="stroke:#007598;stroke:color(display-p3 0.0000 0.4588 0.5961);stroke-opacity:1;" stroke-width="2"/>
<path d="M43.6924 45V47H41.6924V45H43.6924Z" stroke="#007699" style="stroke:#007699;stroke:color(display-p3 0.0000 0.4627 0.6000);stroke-opacity:1;" stroke-width="2"/>
<path d="M23.6924 9V11H21.6924V9H23.6924Z" stroke="#00799D" style="stroke:#00799D;stroke:color(display-p3 0.0000 0.4745 0.6157);stroke-opacity:1;" stroke-width="2"/>
<path d="M47.6924 21V23H45.6924V21H47.6924Z" stroke="#007A9D" style="stroke:#007A9D;stroke:color(display-p3 0.0000 0.4784 0.6157);stroke-opacity:1;" stroke-width="2"/>
<path d="M23.6924 17V19H21.6924V17H23.6924Z" stroke="#007A9E" style="stroke:#007A9E;stroke:color(display-p3 0.0000 0.4784 0.6196);stroke-opacity:1;" stroke-width="2"/>
<path d="M11.6924 1V2.99998H9.69238V1H11.6924Z" stroke="#007CA1" style="stroke:#007CA1;stroke:color(display-p3 0.0000 0.4863 0.6314);stroke-opacity:1;" stroke-width="2"/>
<path d="M35.6924 21V23H33.6924V21H35.6924Z" stroke="#007DA2" style="stroke:#007DA2;stroke:color(display-p3 0.0000 0.4902 0.6353);stroke-opacity:1;" stroke-width="2"/>
<path d="M47.6924 41V43H45.6924V41H47.6924Z" stroke="#007EA3" style="stroke:#007EA3;stroke:color(display-p3 0.0000 0.4941 0.6392);stroke-opacity:1;" stroke-width="2"/>
<path d="M35.6924 33V35H33.6924V33H35.6924Z" stroke="#0080A5" style="stroke:#0080A5;stroke:color(display-p3 0.0000 0.5020 0.6471);stroke-opacity:1;" stroke-width="2"/>
<path d="M19.6924 5V7.00002H17.6924V5H19.6924Z" stroke="#0080A5" style="stroke:#0080A5;stroke:color(display-p3 0.0000 0.5020 0.6471);stroke-opacity:1;" stroke-width="2"/>
<path d="M39.6924 13V15H37.6924V13H39.6924Z" stroke="#0082A8" style="stroke:#0082A8;stroke:color(display-p3 0.0000 0.5098 0.6588);stroke-opacity:1;" stroke-width="2"/>
<path d="M31.6924 25V27H29.6924V25H31.6924Z" stroke="#0082A9" style="stroke:#0082A9;stroke:color(display-p3 0.0000 0.5098 0.6627);stroke-opacity:1;" stroke-width="2"/>
<path d="M15.6924 1V2.99998H13.6924V1H15.6924Z" stroke="#0085AC" style="stroke:#0085AC;stroke:color(display-p3 0.0000 0.5216 0.6745);stroke-opacity:1;" stroke-width="2"/>
<path d="M31.6924 13V15H29.6924V13H31.6924Z" stroke="#0087AF" style="stroke:#0087AF;stroke:color(display-p3 0.0000 0.5294 0.6863);stroke-opacity:1;" stroke-width="2"/>
<path d="M3.69237 5V7.00002H1.69238V5H3.69237Z" stroke="#0087AF" style="stroke:#0087AF;stroke:color(display-p3 0.0000 0.5294 0.6863);stroke-opacity:1;" stroke-width="2"/>
<path d="M27.6924 1V2.99998H25.6924V1H27.6924Z" stroke="#008EB8" style="stroke:#008EB8;stroke:color(display-p3 0.0000 0.5569 0.7216);stroke-opacity:1;" stroke-width="2"/>
<path d="M39.6924 9V11H37.6924V9H39.6924Z" stroke="#0093BE" style="stroke:#0093BE;stroke:color(display-p3 0.0000 0.5765 0.7451);stroke-opacity:1;" stroke-width="2"/>
<path d="M23.6924 1V2.99998H21.6924V1H23.6924Z" stroke="#0093BE" style="stroke:#0093BE;stroke:color(display-p3 0.0000 0.5765 0.7451);stroke-opacity:1;" stroke-width="2"/>
<path d="M47.6924 37V39H45.6924V37H47.6924Z" stroke="#0093BF" style="stroke:#0093BF;stroke:color(display-p3 0.0000 0.5765 0.7490);stroke-opacity:1;" stroke-width="2"/>
<path d="M19.6924 1V2.99998H17.6924V1H19.6924Z" stroke="#009AC8" style="stroke:#009AC8;stroke:color(display-p3 0.0000 0.6039 0.7843);stroke-opacity:1;" stroke-width="2"/>
<path d="M35.6924 13V15H33.6924V13H35.6924Z" stroke="#009ECD" style="stroke:#009ECD;stroke:color(display-p3 0.0000 0.6196 0.8039);stroke-opacity:1;" stroke-width="2"/>
<path d="M47.6924 1V2.99998H45.6924V1H47.6924Z" stroke="#00A3D3" style="stroke:#00A3D3;stroke:color(display-p3 0.0000 0.6392 0.8275);stroke-opacity:1;" stroke-width="2"/>
<path d="M47.6924 9V11H45.6924V9H47.6924Z" stroke="#00AFE2" style="stroke:#00AFE2;stroke:color(display-p3 0.0000 0.6863 0.8863);stroke-opacity:1;" stroke-width="2"/>
<path d="M47.6924 25V27H45.6924V25H47.6924Z" stroke="#00B5EA" style="stroke:#00B5EA;stroke:color(display-p3 0.0000 0.7098 0.9176);stroke-opacity:1;" stroke-width="2"/>
<path d="M39.6924 5V7.00002H37.6924V5H39.6924Z" stroke="#00BBF2" style="stroke:#00BBF2;stroke:color(display-p3 0.0000 0.7333 0.9490);stroke-opacity:1;" stroke-width="2"/>
<path d="M43.6924 5V7.00002H41.6924V5H43.6924Z" stroke="#00C5FF" style="stroke:#00C5FF;stroke:color(display-p3 0.0000 0.7725 1.0000);stroke-opacity:1;" stroke-width="2"/>
</svg>
