<svg width="48" height="48" viewBox="0 0 48 48" fill="none" xmlns="http://www.w3.org/2000/svg">
<g clip-path="url(#clip0_450_2)">
<rect width="48" height="48" fill="white" style="fill:white;fill-opacity:1;"/>
<path d="M6.4743 28.501L0 27.1807V40.4971L4.93488 40.7691L8.93959 35.2208L6.4743 28.501Z" fill="#0085AC" style="fill:#0085AC;fill:color(display-p3 0.0000 0.5216 0.6745);fill-opacity:1;"/>
<path d="M48 34.8943V20.3672L37.4521 31.7506L37.8467 32.9059L48 34.8943Z" fill="#0080A5" style="fill:#0080A5;fill:color(display-p3 0.0000 0.5020 0.6471);fill-opacity:1;"/>
<path d="M23.5859 27.1768L13.0891 20.5049L6.47363 28.5003L8.93892 35.22L18.6891 37.3206L23.5859 27.1768Z" fill="#006C8C" style="fill:#006C8C;fill:color(display-p3 0.0000 0.4235 0.5490);fill-opacity:1;"/>
<path d="M18.4928 0H12.4533L5.2998 12.089L12.8031 18.3878L23.11 8.45644L18.4928 0Z" fill="#006785" style="fill:#006785;fill:color(display-p3 0.0000 0.4039 0.5216);fill-opacity:1;"/>
<path d="M47.9997 20.3671V15.6812L44.3334 13.7236L31.6036 15.654L30.0381 25.3088L37.4519 31.7506L47.9997 20.3671Z" fill="#001C24" style="fill:#001C24;fill:color(display-p3 0.0000 0.1098 0.1412);fill-opacity:1;"/>
<path d="M23.6335 47.9997H33.6339L37.8465 32.9056L37.4519 31.7503L30.0381 25.3086L23.5863 27.1771L18.6895 37.3209L23.6335 47.9997Z" fill="#000C10" style="fill:#000C10;fill:color(display-p3 0.0000 0.0471 0.0627);fill-opacity:1;"/>
<path d="M5.29995 12.0895L0 12.0303V27.1809L6.4743 28.5012L13.0898 20.5058L12.8032 18.3883L5.29995 12.0895Z" fill="#001C24" style="fill:#001C24;fill:color(display-p3 0.0000 0.1098 0.1412);fill-opacity:1;"/>
<path d="M37.0357 0H18.4932L23.1104 8.45644L28.348 10.5113L37.0357 0Z" fill="#00242E" style="fill:#00242E;fill:color(display-p3 0.0000 0.1412 0.1804);fill-opacity:1;"/>
<path d="M28.3473 10.5109L23.1097 8.45605L12.8027 18.3874L13.0893 20.505L23.5861 27.1769L30.0379 25.3084L31.6034 15.6535L28.3473 10.5109Z" fill="#00C5FF" style="fill:#00C5FF;fill:color(display-p3 0.0000 0.7725 1.0000);fill-opacity:1;"/>
<path d="M33.6338 48.0003H47.9997V34.8946L37.8464 32.9062L33.6338 48.0003Z" fill="#004D64" style="fill:#004D64;fill:color(display-p3 0.0000 0.3020 0.3922);fill-opacity:1;"/>
<path d="M12.4535 0H0V12.0298L5.29995 12.089L12.4535 0Z" fill="#002530" style="fill:#002530;fill:color(display-p3 0.0000 0.1451 0.1882);fill-opacity:1;"/>
<path d="M47.9996 15.6811V0H41.4023L44.3333 13.7235L47.9996 15.6811Z" fill="#001F28" style="fill:#001F28;fill:color(display-p3 0.0000 0.1216 0.1569);fill-opacity:1;"/>
<path d="M7.19584 48.0001H23.6335L18.6894 37.3212L8.93928 35.2207L4.93457 40.7691L7.19584 48.0001Z" fill="#001F28" style="fill:#001F28;fill:color(display-p3 0.0000 0.1216 0.1569);fill-opacity:1;"/>
<path d="M41.4026 0H37.0353L28.3477 10.5113L31.6037 15.6539L44.3336 13.7235L41.4026 0Z" fill="#007598" style="fill:#007598;fill:color(display-p3 0.0000 0.4588 0.5961);fill-opacity:1;"/>
<path d="M0 48.0001H7.19615L4.93488 40.7691L0 40.4971V48.0001Z" fill="#007598" style="fill:#007598;fill:color(display-p3 0.0000 0.4588 0.5961);fill-opacity:1;"/>
</g>
<defs>
<clipPath id="clip0_450_2">
<rect width="48" height="48" fill="white" style="fill:white;fill-opacity:1;"/>
</clipPath>
</defs>
</svg>
